<svg id="圖層_1" data-name="圖層 1" xmlns="http://www.w3.org/2000/svg" xmlns:xlink="http://www.w3.org/1999/xlink" viewBox="0 0 200.44 390.08"><defs><style>.cls-1,.cls-4,.cls-6,.cls-8,.cls-9{fill:none;}.cls-2{clip-path:url(#clip-path);}.cls-3{fill:#111213;}.cls-4,.cls-6,.cls-8,.cls-9{stroke:#000;stroke-miterlimit:1;}.cls-4{stroke-width:0.62px;}.cls-5{fill:#fefefe;}.cls-6{stroke-width:0.47px;}.cls-7{clip-path:url(#clip-path-2);}.cls-8{stroke-width:0.75px;}.cls-9{stroke-width:0.57px;}</style><clipPath id="clip-path" transform="translate(-536.32 -1062.13)"><polygon class="cls-1" points="533.33 1260 739.26 1260 739.26 1060.31 533.33 1060.31 533.33 1260 533.33 1260"/></clipPath><clipPath id="clip-path-2" transform="translate(-536.32 -1062.13)"><polygon class="cls-1" points="564.51 1454.8 723.31 1454.8 723.31 1296 564.51 1296 564.51 1454.8 564.51 1454.8"/></clipPath></defs><title>circle</title><g class="cls-2"><path class="cls-3" d="M736.46,1159.1h0c0,53.93-44.59,97.18-99.64,97.18-55.6,0-100.19-43.25-100.19-97.18,0-53.4,44.59-96.66,100.19-96.66,55,0,99.64,43.26,99.64,96.66Z" transform="translate(-536.32 -1062.13)"/><path class="cls-4" d="M736.46,1159.1h0c0,53.93-44.59,97.18-99.64,97.18-55.6,0-100.19-43.25-100.19-97.18,0-53.4,44.59-96.66,100.19-96.66,55,0,99.64,43.26,99.64,96.66Z" transform="translate(-536.32 -1062.13)"/><path class="cls-5" d="M718.84,1160.16h0c0,43.79-36.88,79.57-82,79.57-45.69,0-82.57-35.78-82.57-79.57,0-44.32,36.88-80.1,82.57-80.1,45.14,0,82,35.78,82,80.1Z" transform="translate(-536.32 -1062.13)"/><path class="cls-6" d="M647.83,1159.1h0a11,11,0,0,1-11,11.21c-6.61,0-11.56-4.81-11.56-11.21,0-5.88,5-10.68,11.56-10.68a10.87,10.87,0,0,1,11,10.68Z" transform="translate(-536.32 -1062.13)"/><polyline class="cls-4" points="100.5 86.28 100.5 86.28 100.5 9.39"/><polyline class="cls-4" points="100.5 108.17 100.5 108.17 100.5 182.93"/><polyline class="cls-4" points="111.51 96.96 111.51 96.96 187.47 96.96"/><polyline class="cls-4" points="88.94 96.96 88.94 96.96 9.67 96.96"/><polyline class="cls-4" points="109.3 103.9 109.3 103.9 163.8 157.3"/><polyline class="cls-4" points="107.1 88.42 107.1 88.42 163.25 33.95"/><polyline class="cls-4" points="92.24 89.48 92.24 89.48 36.09 35.02"/><polyline class="cls-4" points="90.04 102.3 90.04 102.3 31.14 159.44"/></g><g class="cls-7"><path class="cls-3" d="M721.15,1374.56h0a77,77,0,1,1-76.83-76.86,76.91,76.91,0,0,1,76.83,76.86Z" transform="translate(-536.32 -1062.13)"/><path class="cls-8" d="M721.15,1374.56h0a77,77,0,1,1-76.83-76.86,76.91,76.91,0,0,1,76.83,76.86Z" transform="translate(-536.32 -1062.13)"/><path class="cls-5" d="M707.57,1375.41h0a63.42,63.42,0,0,1-63.25,63.27c-35.23,0-63.68-28.45-63.68-63.27a63.61,63.61,0,0,1,63.68-63.7c34.81,0,63.25,28.45,63.25,63.7Z" transform="translate(-536.32 -1062.13)"/><path class="cls-9" d="M652.81,1374.56h0a8.62,8.62,0,0,1-8.49,8.92,8.71,8.71,0,0,1-8.92-8.92,8.62,8.62,0,0,1,8.92-8.49,8.51,8.51,0,0,1,8.49,8.49Z" transform="translate(-536.32 -1062.13)"/><polyline class="cls-8" points="107.99 303.93 107.99 303.93 107.99 242.78"/><polyline class="cls-8" points="107.99 321.34 107.99 321.34 107.99 380.79"/><polyline class="cls-8" points="116.48 312.42 116.48 312.42 175.06 312.42"/><polyline class="cls-8" points="99.08 312.42 99.08 312.42 37.95 312.42"/><polyline class="cls-8" points="114.79 317.94 114.79 317.94 156.81 360.41"/><polyline class="cls-8" points="113.09 305.63 113.09 305.63 156.39 262.32"/><polyline class="cls-8" points="101.63 306.48 101.63 306.48 58.33 263.17"/><polyline class="cls-8" points="99.93 316.67 99.93 316.67 54.51 362.11"/></g></svg>