<?xml version="1.0" encoding="utf-8"?>
<!-- Generator: Adobe Illustrator 23.0.0, SVG Export Plug-In . SVG Version: 6.00 Build 0)  -->
<svg version="1.1" id="圖層_1" xmlns="http://www.w3.org/2000/svg" xmlns:xlink="http://www.w3.org/1999/xlink" x="0px" y="0px"
	 viewBox="0 0 100 80" style="enable-background:new 0 0 100 80;" xml:space="preserve">
<g>
	<g>
		<g>
			<g>
				<path d="M38,32.9c-3.3,0-6-2.7-6-5.9c0-3.3,2.7-5.9,6-5.9s6,2.7,6,5.9S41.3,32.9,38,32.9z M38,24c-1.7,0-3,1.3-3,2.9
					c0,1.6,1.3,2.9,3,2.9s3-1.3,3-2.9S39.7,24,38,24z"/>
			</g>
		</g>
		<g>
			<g>
				<path d="M33.5,28.3H26c-0.8,0-1.5-0.7-1.5-1.5s0.7-1.5,1.5-1.5h7.5c0.8,0,1.5,0.7,1.5,1.5S34.3,28.3,33.5,28.3z"/>
			</g>
		</g>
		<g>
			<g>
				<path d="M74,28.3H42.5c-0.8,0-1.5-0.7-1.5-1.5s0.7-1.5,1.5-1.5H74c0.8,0,1.5,0.7,1.5,1.5S74.8,28.3,74,28.3z"/>
			</g>
		</g>
	</g>
	<g>
		<g>
			<g>
				<path d="M65,49.4c-3.3,0-6-2.7-6-5.9c0-3.3,2.7-5.9,6-5.9c3.3,0,6,2.7,6,5.9C71,46.8,68.3,49.4,65,49.4z M65,40.6
					c-1.7,0-3,1.3-3,2.9c0,1.6,1.3,2.9,3,2.9c1.7,0,3-1.3,3-2.9C68,41.9,66.7,40.6,65,40.6z"/>
			</g>
		</g>
		<g>
			<g>
				<path d="M60.5,44.9H26c-0.8,0-1.5-0.7-1.5-1.5s0.7-1.5,1.5-1.5h34.5c0.8,0,1.5,0.7,1.5,1.5S61.3,44.9,60.5,44.9z"/>
			</g>
		</g>
		<g>
			<g>
				<path d="M74,44.9h-4.5c-0.8,0-1.5-0.7-1.5-1.5s0.7-1.5,1.5-1.5H74c0.8,0,1.5,0.7,1.5,1.5S74.8,44.9,74,44.9z"/>
			</g>
		</g>
	</g>
	<g>
		<g>
			<g>
				<path d="M45.9,66c-3.3,0-6-2.7-6-5.9s2.7-5.9,6-5.9s6,2.7,6,5.9C51.9,63.3,49.2,66,45.9,66z M45.9,57.2c-1.7,0-3,1.3-3,2.9
					s1.3,2.9,3,2.9s3-1.3,3-2.9S47.5,57.2,45.9,57.2z"/>
			</g>
		</g>
		<g>
			<g>
				<path d="M41.4,61.5H26c-0.8,0-1.5-0.7-1.5-1.5s0.7-1.5,1.5-1.5h15.4c0.8,0,1.5,0.7,1.5,1.5S42.2,61.5,41.4,61.5z"/>
			</g>
		</g>
		<g>
			<g>
				<path d="M74,61.5H50.4c-0.8,0-1.5-0.7-1.5-1.5s0.7-1.5,1.5-1.5H74c0.8,0,1.5,0.7,1.5,1.5S74.8,61.5,74,61.5z"/>
			</g>
		</g>
	</g>
</g>
</svg>
