<svg id="圖層_1" data-name="圖層 1" xmlns="http://www.w3.org/2000/svg" viewBox="0 0 51 44.9"><title>m-filter(1)</title><path d="M38,32.93A6,6,0,0,1,32,27a5.93,5.93,0,0,1,6-5.9,5.9,5.9,0,1,1,0,11.8ZM38,24a2.9,2.9,0,1,0,3,2.9A2.93,2.93,0,0,0,38,24Z" transform="translate(-24.5 -21.13)"/><path d="M33.5,28.33H26a1.5,1.5,0,0,1,0-3h7.5a1.5,1.5,0,0,1,0,3Z" transform="translate(-24.5 -21.13)"/><path d="M74,28.33H42.5a1.5,1.5,0,0,1,0-3H74a1.5,1.5,0,0,1,0,3Z" transform="translate(-24.5 -21.13)"/><path d="M65,49.43a6,6,0,0,1-6-5.9,5.93,5.93,0,0,1,6-5.9,6,6,0,0,1,6,5.9A5.93,5.93,0,0,1,65,49.43Zm0-8.8a2.9,2.9,0,1,0,3,2.9A2.93,2.93,0,0,0,65,40.63Z" transform="translate(-24.5 -21.13)"/><path d="M60.5,44.93H26a1.5,1.5,0,0,1,0-3H60.5a1.5,1.5,0,0,1,0,3Z" transform="translate(-24.5 -21.13)"/><path d="M74,44.93H69.5a1.5,1.5,0,0,1,0-3H74a1.5,1.5,0,0,1,0,3Z" transform="translate(-24.5 -21.13)"/><path d="M45.9,66a5.9,5.9,0,1,1,6-5.9A6,6,0,0,1,45.9,66Zm0-8.8a2.9,2.9,0,1,0,3,2.9A3,3,0,0,0,45.9,57.23Z" transform="translate(-24.5 -21.13)"/><path d="M41.4,61.53H26a1.5,1.5,0,0,1,0-3H41.4a1.5,1.5,0,1,1,0,3Z" transform="translate(-24.5 -21.13)"/><path d="M74,61.53H50.4a1.5,1.5,0,0,1,0-3H74a1.5,1.5,0,0,1,0,3Z" transform="translate(-24.5 -21.13)"/></svg>