<svg xmlns="http://www.w3.org/2000/svg" viewBox="0 0 13.96 16.05"><defs><style>.cls-1{fill:#8d99ac;}</style></defs><title>people</title><g id="圖層_2" data-name="圖層 2"><g id="right_2圓弧"><path class="cls-1" d="M13,10.19A5.38,5.38,0,0,0,8.77,7.7c-1-.06-2,0-3,0a6.42,6.42,0,0,0-2,.32A5.58,5.58,0,0,0,0,13c0,.8,0,1.6,0,2.41a.86.86,0,0,0,.15.43.68.68,0,0,0,.62.26H13.2a.69.69,0,0,0,.76-.76c0-.66,0-1.33,0-2A5.35,5.35,0,0,0,13,10.19Z"/><path class="cls-1" d="M7,7A3.49,3.49,0,1,0,3.49,3.52,3.5,3.5,0,0,0,7,7Z"/></g></g></svg>