<svg id="圖層_1" data-name="圖層 1" xmlns="http://www.w3.org/2000/svg" xmlns:xlink="http://www.w3.org/1999/xlink" viewBox="0 0 113.51 115.64"><defs><style>.cls-1,.cls-5{fill:none;}.cls-2{clip-path:url(#clip-path);}.cls-3{fill:#8d99ac;stroke-width:3px;}.cls-3,.cls-5,.cls-6{stroke:#8d99ac;stroke-miterlimit:1;}.cls-4{fill:#fefefe;}.cls-5{stroke-width:8px;}.cls-6{fill:#fff;stroke-width:5px;}</style><clipPath id="clip-path" transform="translate(-0.45 0.21)"><polygon class="cls-1" points="0.13 116.09 114.01 116.09 114.01 0.05 0.13 0.05 0.13 116.09 0.13 116.09"/></clipPath></defs><title>circle-1</title><g class="cls-2"><path class="cls-3" d="M112.46,57.46h0c0,31.34-24.65,56.47-55.1,56.47C26.61,113.93,2,88.8,2,57.46c0-31,24.66-56.17,55.41-56.17,30.45,0,55.1,25.14,55.1,56.17Z" transform="translate(-0.45 0.21)"/><path class="cls-1" d="M112.46,57.46h0c0,31.34-24.65,56.47-55.1,56.47C26.61,113.93,2,88.8,2,57.46c0-31,24.66-56.17,55.41-56.17,30.45,0,55.1,25.14,55.1,56.17Z" transform="translate(-0.45 0.21)"/><path class="cls-4" d="M102.72,58.08h0c0,25.44-20.39,46.23-45.36,46.23-25.27,0-45.66-20.79-45.66-46.23,0-25.76,20.39-46.55,45.66-46.55,25,0,45.36,20.79,45.36,46.55Z" transform="translate(-0.45 0.21)"/><polyline class="cls-5" points="56.91 51.46 56.91 51.46 56.91 6.78"/><polyline class="cls-5" points="56.91 64.18 56.91 64.18 56.91 107.62"/><polyline class="cls-5" points="63 57.66 63 57.66 105.01 57.66"/><polyline class="cls-5" points="50.51 57.66 50.51 57.66 6.67 57.66"/><polyline class="cls-5" points="61.78 61.7 61.78 61.7 91.92 92.73"/><polyline class="cls-5" points="60.56 52.7 60.56 52.7 91.61 21.05"/><polyline class="cls-5" points="52.34 53.32 52.34 53.32 21.29 21.67"/><polyline class="cls-5" points="51.12 60.77 51.12 60.77 18.55 93.97"/><path class="cls-6" d="M69,57.32h0c0,7-5.18,12.31-11.5,12.31A11.91,11.91,0,0,1,45.42,57.32,11.78,11.78,0,0,1,57.5,45.59,11.66,11.66,0,0,1,69,57.32Z" transform="translate(-0.45 0.21)"/></g></svg>